<?xml version="1.0" standalone="no"?>
<!DOCTYPE svg PUBLIC "-//W3C//DTD SVG 20010904//EN"
 "http://www.w3.org/TR/2001/REC-SVG-20010904/DTD/svg10.dtd">
<svg version="1.0" xmlns="http://www.w3.org/2000/svg"
 width="562.000000pt" height="562.000000pt" viewBox="0 0 562.000000 562.000000"
 preserveAspectRatio="xMidYMid meet">
<metadata>
Created by potrace 1.14, written by Peter Selinger 2001-2017
</metadata>
<g transform="translate(0.000000,562.000000) scale(0.100000,-0.100000)"
fill="#000000" stroke="none">
<path d="M3653 5563 c39 -55 93 -146 90 -153 -1 -3 5 -20 13 -39 8 -18 14 -38
14 -43 0 -5 6 -21 14 -36 7 -15 16 -40 20 -56 6 -24 5 -27 -6 -19 -7 6 -31 16
-53 23 -22 7 -44 16 -50 20 -26 19 -313 102 -400 116 -16 3 -40 7 -52 9 -12 2
-34 6 -50 9 -151 31 -537 37 -678 10 -10 -2 -37 -6 -60 -9 -22 -4 -53 -9 -70
-12 -16 -3 -39 -6 -51 -8 -40 -6 -221 -57 -304 -86 -47 -17 -91 -31 -97 -32
-7 0 -13 -5 -13 -10 0 -6 -3 -8 -6 -5 -3 4 -17 0 -32 -8 -14 -7 -28 -12 -30
-9 -6 6 79 250 89 253 5 2 9 9 9 16 0 7 14 32 32 55 l32 44 -44 -29 c-76 -51
-165 -133 -215 -199 -32 -44 -36 -49 -65 -84 -11 -13 -20 -28 -20 -33 0 -5 -8
-17 -18 -28 -9 -10 -31 -47 -49 -82 -21 -42 -43 -70 -65 -82 -18 -11 -35 -22
-38 -25 -3 -3 -38 -28 -77 -55 -40 -27 -73 -52 -73 -56 0 -4 -10 -12 -22 -17
-29 -14 -118 -94 -223 -198 -83 -84 -104 -107 -170 -190 -22 -27 -42 -52 -45
-55 -8 -7 -125 -182 -134 -200 -4 -8 -18 -33 -31 -55 -62 -105 -191 -394 -199
-447 -1 -7 -4 -17 -8 -23 -7 -12 -64 -246 -73 -300 -14 -85 -17 -107 -30 -245
-7 -68 -7 -295 0 -365 13 -137 15 -162 20 -181 2 -12 7 -39 11 -60 3 -21 15
-77 26 -124 11 -47 21 -92 23 -100 2 -8 15 -51 30 -95 126 -378 311 -678 597
-969 59 -60 105 -113 101 -119 -3 -6 -1 -7 5 -3 15 9 62 -22 62 -41 0 -8 5
-11 11 -7 7 4 9 0 5 -14 -6 -16 -3 -19 12 -15 24 6 37 -24 20 -45 -11 -13 -10
-14 9 -8 18 6 23 3 29 -18 3 -14 3 -34 -1 -43 -4 -10 -9 -35 -10 -55 -3 -35
-2 -37 17 -27 17 9 23 8 30 -4 5 -9 14 -22 21 -29 13 -15 16 -25 23 -77 3 -26
-2 -45 -22 -74 -19 -28 -23 -42 -14 -47 9 -6 9 -12 -1 -29 -8 -11 -17 -21 -22
-21 -4 0 -5 -4 -2 -10 3 -5 1 -10 -4 -10 -6 0 -11 -9 -11 -20 0 -11 -4 -20 -8
-20 -26 0 -9 -178 24 -241 9 -19 10 -29 2 -37 -29 -29 61 -200 97 -185 8 3 15
0 15 -7 0 -6 4 -9 9 -6 7 5 17 37 25 86 5 27 35 81 60 108 42 45 67 41 81 -10
2 -5 3 -9 5 -10 1 -2 3 -12 5 -23 9 -62 19 -87 67 -164 14 -24 39 -24 44 -1
12 61 16 77 21 95 4 11 7 25 8 30 0 6 9 36 20 68 21 65 60 116 92 122 24 4 26
0 62 -125 31 -104 58 -160 77 -160 20 0 89 85 107 133 7 20 28 22 45 5 7 -7
12 -10 13 -8 0 3 2 20 3 38 1 18 8 38 14 44 6 6 44 12 85 13 40 1 95 6 122 10
28 5 66 9 85 9 19 1 41 5 48 9 6 5 12 4 12 -2 0 -5 8 -8 18 -6 10 2 52 -10 93
-27 64 -26 82 -29 134 -24 33 3 105 8 160 11 233 12 292 15 331 21 23 3 44 2
47 -3 3 -5 7 -30 9 -56 3 -52 11 -57 36 -26 25 30 47 16 94 -58 22 -35 42 -62
45 -60 2 2 5 14 8 25 2 12 11 37 20 56 9 19 17 40 19 48 1 7 4 18 7 23 9 15
22 69 20 81 0 6 6 17 14 24 13 11 20 9 42 -11 21 -20 69 -108 78 -144 1 -5 5
-17 8 -25 9 -24 29 -90 32 -108 2 -9 4 -18 5 -19 2 -2 3 -7 4 -13 0 -5 4 -10
9 -10 4 0 11 0 15 0 9 0 65 104 68 128 7 42 38 91 63 98 14 4 33 9 41 11 30 9
105 4 108 -6 2 -6 10 -11 18 -11 8 0 14 -4 14 -10 0 -5 6 -10 13 -10 7 0 18
-9 25 -20 19 -32 30 -24 37 27 11 83 13 97 23 128 5 17 10 59 11 95 1 55 -3
74 -27 121 -26 49 -28 57 -15 75 12 16 12 20 0 29 -22 16 -57 78 -56 100 0 11
8 36 17 55 14 28 23 35 47 35 27 1 30 4 33 34 2 20 -1 31 -6 27 -6 -3 -8 2 -5
14 3 11 0 27 -7 35 -7 8 -9 15 -5 15 4 0 2 6 -4 14 -12 14 -5 45 10 47 5 1 13
2 17 3 9 1 63 49 95 84 12 12 27 20 34 18 7 -3 12 -2 10 3 -1 4 23 33 53 63
119 122 169 176 230 253 59 75 171 240 214 316 44 78 126 249 126 264 0 8 5
15 11 15 5 0 8 4 4 9 -3 5 -1 12 5 16 5 3 10 16 10 29 0 12 4 26 9 31 10 11
61 175 82 265 16 65 13 55 23 110 5 25 10 52 11 61 16 86 20 162 19 399 0 151
-3 286 -7 300 -3 14 -8 43 -11 65 -3 22 -8 51 -10 65 -3 14 -11 50 -17 80 -56
282 -210 629 -394 885 -142 198 -387 443 -555 555 -12 8 -28 20 -34 26 -7 6
-25 18 -41 27 -40 20 -75 52 -75 67 0 6 -9 25 -21 41 -11 16 -17 29 -12 29 4
0 1 5 -7 10 -8 5 -15 13 -15 17 0 12 -80 127 -99 142 -9 7 -16 18 -16 24 0 14
-136 147 -150 147 -5 0 -10 4 -10 8 0 7 -82 73 -118 95 -7 5 2 -13 21 -40z"/>
</g>
</svg>
