<?xml version="1.0" encoding="UTF-8"?>
<svg xmlns="http://www.w3.org/2000/svg" xmlns:xlink="http://www.w3.org/1999/xlink" viewBox="0 0 520.26 131.4">
    <defs>
        <style>
            .cls-1 {
                fill: url(#Adsız_degrade_26);
            }

            .cls-1,
            .cls-2,
            .cls-3,
            .cls-4,
            .cls-5,
            .cls-6,
            .cls-7,
            .cls-8,
            .cls-9,
            .cls-10,
            .cls-11,
            .cls-12,
            .cls-13,
            .cls-14,
            .cls-15,
            .cls-16,
            .cls-17,
            .cls-18,
            .cls-19,
            .cls-20,
            .cls-21,
            .cls-22,
            .cls-23,
            .cls-24,
            .cls-25,
            .cls-26,
            .cls-27,
            .cls-28,
            .cls-29,
            .cls-30,
            .cls-31,
            .cls-32,
            .cls-33,
            .cls-34,
            .cls-35,
            .cls-36,
            .cls-37,
            .cls-38,
            .cls-39,
            .cls-40,
            .cls-41,
            .cls-42,
            .cls-43,
            .cls-44,
            .cls-45,
            .cls-46,
            .cls-47,
            .cls-48,
            .cls-49,
            .cls-50,
            .cls-51,
            .cls-52,
            .cls-53,
            .cls-54,
            .cls-55,
            .cls-56,
            .cls-57 {
                stroke-width: 0px;
            }

            .cls-2 {
                fill: url(#linear-gradient);
            }

            .cls-2,
            .cls-3,
            .cls-4,
            .cls-5,
            .cls-6,
            .cls-7,
            .cls-8,
            .cls-9,
            .cls-10,
            .cls-11,
            .cls-12,
            .cls-13,
            .cls-14,
            .cls-15,
            .cls-16,
            .cls-17,
            .cls-18,
            .cls-19,
            .cls-20,
            .cls-21,
            .cls-22,
            .cls-23,
            .cls-24,
            .cls-25,
            .cls-26,
            .cls-27,
            .cls-28,
            .cls-29,
            .cls-30,
            .cls-31,
            .cls-32,
            .cls-33,
            .cls-34,
            .cls-35,
            .cls-36,
            .cls-37,
            .cls-38,
            .cls-39,
            .cls-40,
            .cls-41,
            .cls-42,
            .cls-43,
            .cls-44,
            .cls-45,
            .cls-46,
            .cls-47,
            .cls-48,
            .cls-49,
            .cls-50,
            .cls-51,
            .cls-52,
            .cls-53,
            .cls-54,
            .cls-56,
            .cls-57 {
                fill-rule: evenodd;
            }

            .cls-3 {
                fill: url(#linear-gradient-9);
            }

            .cls-4 {
                fill: url(#linear-gradient-8);
            }

            .cls-5 {
                fill: url(#linear-gradient-3);
            }

            .cls-6 {
                fill: url(#linear-gradient-2);
            }

            .cls-7 {
                fill: url(#linear-gradient-4);
            }

            .cls-8 {
                fill: url(#linear-gradient-5);
            }

            .cls-9 {
                fill: url(#linear-gradient-7);
            }

            .cls-10 {
                fill: url(#linear-gradient-6);
            }

            .cls-11 {
                fill: url(#linear-gradient-45);
            }

            .cls-12 {
                fill: url(#linear-gradient-46);
            }

            .cls-13 {
                fill: url(#linear-gradient-44);
            }

            .cls-14 {
                fill: url(#linear-gradient-42);
            }

            .cls-15 {
                fill: url(#linear-gradient-43);
            }

            .cls-16 {
                fill: url(#linear-gradient-40);
            }

            .cls-17 {
                fill: url(#linear-gradient-41);
            }

            .cls-18 {
                fill: url(#linear-gradient-28);
            }

            .cls-19 {
                fill: url(#linear-gradient-29);
            }

            .cls-20 {
                fill: url(#linear-gradient-32);
            }

            .cls-21 {
                fill: url(#linear-gradient-25);
            }

            .cls-22 {
                fill: url(#linear-gradient-30);
            }

            .cls-23 {
                fill: url(#linear-gradient-33);
            }

            .cls-24 {
                fill: url(#linear-gradient-38);
            }

            .cls-25 {
                fill: url(#linear-gradient-36);
            }

            .cls-26 {
                fill: url(#linear-gradient-31);
            }

            .cls-27 {
                fill: url(#linear-gradient-34);
            }

            .cls-28 {
                fill: url(#linear-gradient-37);
            }

            .cls-29 {
                fill: url(#linear-gradient-39);
            }

            .cls-30 {
                fill: url(#linear-gradient-35);
            }

            .cls-31 {
                fill: url(#linear-gradient-14);
            }

            .cls-32 {
                fill: url(#linear-gradient-11);
            }

            .cls-33 {
                fill: url(#linear-gradient-13);
            }

            .cls-34 {
                fill: url(#linear-gradient-10);
            }

            .cls-35 {
                fill: url(#linear-gradient-12);
            }

            .cls-36 {
                fill: url(#linear-gradient-15);
            }

            .cls-37 {
                fill: url(#linear-gradient-16);
            }

            .cls-38 {
                fill: url(#linear-gradient-17);
            }

            .cls-39 {
                fill: url(#linear-gradient-19);
            }

            .cls-40 {
                fill: url(#linear-gradient-23);
            }

            .cls-41 {
                fill: url(#linear-gradient-22);
            }

            .cls-42 {
                fill: url(#linear-gradient-18);
            }

            .cls-43 {
                fill: url(#linear-gradient-20);
            }

            .cls-44 {
                fill: url(#linear-gradient-21);
            }

            .cls-45 {
                fill: url(#linear-gradient-24);
            }

            .cls-46 {
                fill: url(#linear-gradient-27);
            }

            .cls-47 {
                fill: url(#linear-gradient-26);
            }

            .cls-48 {
                fill: #010716;
            }

            .cls-49 {
                fill: #132d54;
            }

            .cls-50 {
                fill: #295189;
            }

            .cls-51,
            .cls-55 {
                fill: gray;
            }

            .cls-52 {
                fill: url(#New_Gradient_Swatch_8);
            }

            .cls-53 {
                fill: url(#New_Gradient_Swatch_9);
            }

            .cls-58 {
                isolation: isolate;
            }

            .cls-54 {
                fill: url(#radial-gradient-2);
            }

            .cls-54,
            .cls-56 {
                mix-blend-mode: screen;
            }

            .cls-56 {
                fill: url(#radial-gradient);
            }
        </style>
        <linearGradient id="Adsız_degrade_26" x1="260.13" y1="119.82" x2="260.13" y2="11.58"
            gradientUnits="userSpaceOnUse">
            <stop offset="0" stop-color="#853500" />
            <stop offset=".23" stop-color="#ae0000" />
            <stop offset=".5" stop-color="#620000" />
            <stop offset=".78" stop-color="#941f04" />
            <stop offset="1" stop-color="#7f2000" />
        </linearGradient>
        <linearGradient id="New_Gradient_Swatch_8" x1="260.13" y1="3.4" x2="260.13" y2="0"
            gradientUnits="userSpaceOnUse">
            <stop offset="0" stop-color="#efe1bb" />
            <stop offset="1" stop-color="#edd4ae" />
        </linearGradient>
        <linearGradient id="linear-gradient" x1="260.13" y1="6.81" x2="260.13" y2="3.4" gradientUnits="userSpaceOnUse">
            <stop offset="0" stop-color="#694426" />
            <stop offset="1" stop-color="#92652d" />
        </linearGradient>
        <linearGradient id="linear-gradient-2" x1="47.35" y1="9.88" x2="50.75" y2="9.88" gradientUnits="userSpaceOnUse">
            <stop offset="0" stop-color="#a5734a" />
            <stop offset="1" stop-color="#e0b177" />
        </linearGradient>
        <linearGradient id="linear-gradient-3" x1="50.75" y1="12.29" x2="54.16" y2="12.29"
            gradientUnits="userSpaceOnUse">
            <stop offset="0" stop-color="#a27048" />
            <stop offset="1" stop-color="#523329" />
        </linearGradient>
        <linearGradient id="linear-gradient-4" x1="260.13" y1="131.4" x2="260.13" y2="128"
            gradientUnits="userSpaceOnUse">
            <stop offset="0" stop-color="#694426" />
            <stop offset="1" stop-color="#92652d" />
        </linearGradient>
        <linearGradient id="linear-gradient-5" x1="260.13" y1="128" x2="260.13" y2="124.59"
            gradientUnits="userSpaceOnUse">
            <stop offset="0" stop-color="#efe1bb" />
            <stop offset="1" stop-color="#edd4ae" />
        </linearGradient>
        <linearGradient id="linear-gradient-6" x1="26.58" y1="87.47" x2="24.17" y2="89.87"
            gradientUnits="userSpaceOnUse">
            <stop offset="0" stop-color="#a27048" />
            <stop offset="1" stop-color="#523329" />
        </linearGradient>
        <linearGradient id="linear-gradient-7" x1="30.69" y1="86.76" x2="28.28" y2="89.17"
            gradientUnits="userSpaceOnUse">
            <stop offset="0" stop-color="#e2bb7e" />
            <stop offset="1" stop-color="#ece2a9" />
        </linearGradient>
        <linearGradient id="linear-gradient-8" x1="466.1" y1="119.11" x2="469.5" y2="119.11"
            gradientUnits="userSpaceOnUse">
            <stop offset="0" stop-color="#a5734a" />
            <stop offset="1" stop-color="#e0b177" />
        </linearGradient>
        <linearGradient id="linear-gradient-9" x1="469.5" y1="121.52" x2="472.91" y2="121.52"
            gradientUnits="userSpaceOnUse">
            <stop offset="0" stop-color="#a27048" />
            <stop offset="1" stop-color="#523329" />
        </linearGradient>
        <linearGradient id="linear-gradient-10" x1="260.17" y1="11.58" x2="260.17" y2="9.54"
            gradientUnits="userSpaceOnUse">
            <stop offset="0" stop-color="#efe1bb" />
            <stop offset="1" stop-color="#edd4ae" />
        </linearGradient>
        <linearGradient id="linear-gradient-11" x1="260.17" y1="13.63" x2="260.17" y2="11.58"
            gradientUnits="userSpaceOnUse">
            <stop offset="0" stop-color="#694426" />
            <stop offset="1" stop-color="#92652d" />
        </linearGradient>
        <linearGradient id="linear-gradient-12" x1="32.35" y1="31.62" x2="34.39" y2="31.62"
            gradientUnits="userSpaceOnUse">
            <stop offset="0" stop-color="#a5734a" />
            <stop offset="1" stop-color="#e0b177" />
        </linearGradient>
        <linearGradient id="linear-gradient-13" x1="34.39" y1="32.64" x2="36.44" y2="32.64"
            gradientUnits="userSpaceOnUse">
            <stop offset="0" stop-color="#a27048" />
            <stop offset="1" stop-color="#523329" />
        </linearGradient>
        <linearGradient id="linear-gradient-14" x1="260.13" y1="121.86" x2="260.13" y2="119.82"
            gradientUnits="userSpaceOnUse">
            <stop offset="0" stop-color="#694426" />
            <stop offset="1" stop-color="#92652d" />
        </linearGradient>
        <linearGradient id="linear-gradient-15" x1="260.13" y1="119.82" x2="260.13" y2="117.78"
            gradientUnits="userSpaceOnUse">
            <stop offset="0" stop-color="#efe1bb" />
            <stop offset="1" stop-color="#edd4ae" />
        </linearGradient>
        <linearGradient id="linear-gradient-16" x1="479.86" y1="59.7" x2="478.42" y2="58.26"
            gradientUnits="userSpaceOnUse">
            <stop offset="0" stop-color="#efe1bb" />
            <stop offset="1" stop-color="#edd4ae" />
        </linearGradient>
        <linearGradient id="linear-gradient-17" x1="481.31" y1="61.15" x2="479.86" y2="59.7"
            gradientUnits="userSpaceOnUse">
            <stop offset="0" stop-color="#523329" />
            <stop offset="1" stop-color="#a27048" />
        </linearGradient>
        <linearGradient id="linear-gradient-18" x1="491.86" y1="59.7" x2="490.41" y2="61.15"
            gradientUnits="userSpaceOnUse">
            <stop offset="0" stop-color="#a27048" />
            <stop offset="1" stop-color="#523329" />
        </linearGradient>
        <linearGradient id="linear-gradient-19" x1="493.3" y1="58.26" x2="491.86" y2="59.7"
            gradientUnits="userSpaceOnUse">
            <stop offset="0" stop-color="#e2bb7e" />
            <stop offset="1" stop-color="#ece2a9" />
        </linearGradient>
        <linearGradient id="linear-gradient-20" x1="491.86" y1="71.7" x2="490.41" y2="70.25"
            gradientUnits="userSpaceOnUse">
            <stop offset="0" stop-color="#efe1bb" />
            <stop offset="1" stop-color="#edd4ae" />
        </linearGradient>
        <linearGradient id="linear-gradient-21" x1="493.3" y1="73.14" x2="491.86" y2="71.7"
            gradientUnits="userSpaceOnUse">
            <stop offset="0" stop-color="#523329" />
            <stop offset="1" stop-color="#a27048" />
        </linearGradient>
        <linearGradient id="linear-gradient-22" x1="481.31" y1="70.25" x2="479.86" y2="71.7"
            gradientUnits="userSpaceOnUse">
            <stop offset="0" stop-color="#8c6c51" />
            <stop offset="1" stop-color="#dec2a0" />
        </linearGradient>
        <linearGradient id="linear-gradient-23" x1="479.86" y1="71.7" x2="478.42" y2="73.14"
            gradientUnits="userSpaceOnUse">
            <stop offset="0" stop-color="#a27048" />
            <stop offset="1" stop-color="#523329" />
        </linearGradient>
        <linearGradient id="linear-gradient-24" x1="32.35" y1="99.78" x2="34.39" y2="99.78"
            gradientUnits="userSpaceOnUse">
            <stop offset="0" stop-color="#a5734a" />
            <stop offset="1" stop-color="#e0b177" />
        </linearGradient>
        <linearGradient id="linear-gradient-25" x1="34.39" y1="98.76" x2="36.44" y2="98.76"
            gradientUnits="userSpaceOnUse">
            <stop offset="0" stop-color="#a27048" />
            <stop offset="1" stop-color="#523329" />
        </linearGradient>
        <linearGradient id="linear-gradient-26" x1="485.86" y1="99.78" x2="487.9" y2="99.78"
            gradientUnits="userSpaceOnUse">
            <stop offset="0" stop-color="#a27048" />
            <stop offset="1" stop-color="#523329" />
        </linearGradient>
        <linearGradient id="linear-gradient-27" x1="483.82" y1="98.76" x2="485.86" y2="98.76"
            gradientUnits="userSpaceOnUse">
            <stop offset="0" stop-color="#a5734a" />
            <stop offset="1" stop-color="#e0b177" />
        </linearGradient>
        <linearGradient id="linear-gradient-28" x1="26.58" y1="43.93" x2="24.17" y2="41.53"
            gradientUnits="userSpaceOnUse">
            <stop offset="0" stop-color="#efe1bb" />
            <stop offset="1" stop-color="#edd4ae" />
        </linearGradient>
        <linearGradient id="linear-gradient-29" x1="30.69" y1="44.64" x2="28.28" y2="42.23"
            gradientUnits="userSpaceOnUse">
            <stop offset="0" stop-color="#523329" />
            <stop offset="1" stop-color="#a27048" />
        </linearGradient>
        <linearGradient id="New_Gradient_Swatch_9" x1="47.35" y1="121.52" x2="50.75" y2="121.52"
            gradientUnits="userSpaceOnUse">
            <stop offset="0" stop-color="#a5734a" />
            <stop offset="1" stop-color="#e0b177" />
        </linearGradient>
        <linearGradient id="linear-gradient-30" x1="50.75" y1="119.11" x2="54.16" y2="119.11"
            gradientUnits="userSpaceOnUse">
            <stop offset="0" stop-color="#a27048" />
            <stop offset="1" stop-color="#523329" />
        </linearGradient>
        <linearGradient id="linear-gradient-31" x1="466.1" y1="12.29" x2="469.5" y2="12.29"
            gradientUnits="userSpaceOnUse">
            <stop offset="0" stop-color="#a5734a" />
            <stop offset="1" stop-color="#e0b177" />
        </linearGradient>
        <linearGradient id="linear-gradient-32" x1="469.5" y1="9.88" x2="472.91" y2="9.88"
            gradientUnits="userSpaceOnUse">
            <stop offset="0" stop-color="#a27048" />
            <stop offset="1" stop-color="#523329" />
        </linearGradient>
        <linearGradient id="linear-gradient-33" x1="491.97" y1="89.17" x2="489.57" y2="86.76"
            gradientUnits="userSpaceOnUse">
            <stop offset="0" stop-color="#efe1bb" />
            <stop offset="1" stop-color="#edd4ae" />
        </linearGradient>
        <linearGradient id="linear-gradient-34" x1="496.08" y1="89.87" x2="493.68" y2="87.47"
            gradientUnits="userSpaceOnUse">
            <stop offset="0" stop-color="#523329" />
            <stop offset="1" stop-color="#a27048" />
        </linearGradient>
        <linearGradient id="linear-gradient-35" x1="491.97" y1="42.23" x2="489.57" y2="44.64"
            gradientUnits="userSpaceOnUse">
            <stop offset="0" stop-color="#a27048" />
            <stop offset="1" stop-color="#523329" />
        </linearGradient>
        <linearGradient id="linear-gradient-36" x1="496.08" y1="41.53" x2="493.68" y2="43.93"
            gradientUnits="userSpaceOnUse">
            <stop offset="0" stop-color="#8c6c51" />
            <stop offset="1" stop-color="#dec2a0" />
        </linearGradient>
        <linearGradient id="linear-gradient-37" x1="485.94" y1="31.62" x2="487.98" y2="31.62"
            gradientUnits="userSpaceOnUse">
            <stop offset="0" stop-color="#a27048" />
            <stop offset="1" stop-color="#523329" />
        </linearGradient>
        <linearGradient id="linear-gradient-38" x1="483.9" y1="32.64" x2="485.94" y2="32.64"
            gradientUnits="userSpaceOnUse">
            <stop offset="0" stop-color="#a5734a" />
            <stop offset="1" stop-color="#e0b177" />
        </linearGradient>
        <linearGradient id="linear-gradient-39" x1="28.4" y1="59.7" x2="26.95" y2="58.26"
            gradientUnits="userSpaceOnUse">
            <stop offset="0" stop-color="#efe1bb" />
            <stop offset="1" stop-color="#edd4ae" />
        </linearGradient>
        <linearGradient id="linear-gradient-40" x1="29.84" y1="61.15" x2="28.4" y2="59.7"
            gradientUnits="userSpaceOnUse">
            <stop offset="0" stop-color="#523329" />
            <stop offset="1" stop-color="#a27048" />
        </linearGradient>
        <linearGradient id="linear-gradient-41" x1="40.39" y1="59.7" x2="38.95" y2="61.15"
            gradientUnits="userSpaceOnUse">
            <stop offset="0" stop-color="#a27048" />
            <stop offset="1" stop-color="#523329" />
        </linearGradient>
        <linearGradient id="linear-gradient-42" x1="41.84" y1="58.26" x2="40.39" y2="59.7"
            gradientUnits="userSpaceOnUse">
            <stop offset="0" stop-color="#e2bb7e" />
            <stop offset="1" stop-color="#ece2a9" />
        </linearGradient>
        <linearGradient id="linear-gradient-43" x1="40.39" y1="71.7" x2="38.95" y2="70.25"
            gradientUnits="userSpaceOnUse">
            <stop offset="0" stop-color="#efe1bb" />
            <stop offset="1" stop-color="#edd4ae" />
        </linearGradient>
        <linearGradient id="linear-gradient-44" x1="41.84" y1="73.14" x2="40.39" y2="71.7"
            gradientUnits="userSpaceOnUse">
            <stop offset="0" stop-color="#523329" />
            <stop offset="1" stop-color="#a27048" />
        </linearGradient>
        <linearGradient id="linear-gradient-45" x1="29.84" y1="70.25" x2="28.4" y2="71.7"
            gradientUnits="userSpaceOnUse">
            <stop offset="0" stop-color="#8c6c51" />
            <stop offset="1" stop-color="#dec2a0" />
        </linearGradient>
        <linearGradient id="linear-gradient-46" x1="28.4" y1="71.7" x2="26.95" y2="73.14"
            gradientUnits="userSpaceOnUse">
            <stop offset="0" stop-color="#a27048" />
            <stop offset="1" stop-color="#523329" />
        </linearGradient>
        <radialGradient id="radial-gradient" cx="128.16" cy="-24.53" fx="128.16" fy="-24.53" r="244.19"
            gradientUnits="userSpaceOnUse">
            <stop offset="0" stop-color="#435eb0" />
            <stop offset="1" stop-color="#000" />
        </radialGradient>
        <radialGradient id="radial-gradient-2" cx="433.2" cy="82.71" fx="433.2" fy="82.71" r="339.69"
            xlink:href="#radial-gradient" />
    </defs>
    <g class="cls-58">
        <g id="Layer_1">
            <polygon class="cls-1"
                points="34.39 11.58 34.39 119.82 485.86 119.82 485.86 11.58 34.39 11.58 34.39 11.58" />
            <polygon class="cls-49"
                points="34.39 119.82 39.22 114.99 39.22 16.41 34.39 11.58 34.39 119.82 34.39 119.82" />
            <polygon class="cls-50"
                points="39.22 16.41 481.04 16.41 485.86 11.64 485.86 11.58 34.39 11.58 39.22 16.41 39.22 16.41" />
            <polygon class="cls-48"
                points="481.04 114.99 39.22 114.99 34.39 119.82 485.86 119.82 485.86 119.76 481.04 114.99 481.04 114.99" />
            <polygon class="cls-49"
                points="481.04 16.41 481.04 114.99 485.86 119.76 485.86 11.64 481.04 16.41 481.04 16.41" />
            <path class="cls-55"
                d="m20.96,64.26l11.4-11.4v-9.88l-22.73,22.73,22.73,22.73v-9.88l-12.84-12.84,1.44-1.44h0Zm11.4-30.91V9.54h15V0h425.56v9.54h15.07v23.89l32.27,32.27-32.35,32.35v23.81h-15v9.54H47.35v-9.54h-15v-23.81L0,65.7l32.35-32.35h0Zm21.8-23.81h411.94v-2.73H54.16v2.73h0Zm433.82,33.51v9.88l12.76,12.76-12.84,12.84v9.88l22.73-22.73-22.65-22.65h0Zm-21.88,78.81H54.16v2.73h411.94v-2.73h0Zm6.81-103.51l10.99,10.99v-15.72h-10.99v4.73h0Zm10.91,83.79l-10.91,10.91v4.73h10.91v-15.64h0Zm-436.47,15.64v-4.73l-10.91-10.91v15.64h10.91Zm-10.91-88.51l10.91-10.91v-4.73h-10.91v15.64h0Zm447.46,9.7l-17.8-17.8v-7.55H54.16v7.55l-17.72,17.72v13.97l12.84,12.84-12.84,12.84v13.97l17.72,17.72v7.55h411.94v-7.55l17.72-17.72v-13.97l-12.84-12.84,12.92-12.92v-13.82h0Zm11.07,26.73l-9.11-9.11-9.11,9.11,9.11,9.11,9.11-9.11h0ZM34.39,56.59l-9.11,9.11,9.11,9.11,9.11-9.11-9.11-9.11h0Z" />
            <path class="cls-52" d="m50.75,3.4h418.75l3.4-3.4H47.35l3.4,3.4h0Z" />
            <path class="cls-2" d="m469.5,3.4H50.75l3.4,3.4h411.94l3.4-3.4h0Z" />
            <path class="cls-6" d="m50.75,19.76V3.4l-3.4-3.4v18.35l3.4,1.41h0Z" />
            <path class="cls-5" d="m50.75,3.4v16.36l3.4,1.41V6.81l-3.4-3.4h0Z" />
            <path class="cls-7" d="m50.75,128h418.75l3.4,3.4H47.35l3.4-3.4h0Z" />
            <path class="cls-8" d="m469.5,128H50.75l3.4-3.4h411.94l3.4,3.4h0Z" />
            <path class="cls-10" d="m47.35,113.05L0,65.7h4.81c15.31,15.31,30.63,30.63,45.94,45.94l-3.4,1.41h0Z" />
            <path class="cls-9"
                d="m50.75,111.64c-15.31-15.31-30.63-30.63-45.94-45.94h4.81s44.53,44.53,44.53,44.53l-3.4,1.41h0Z" />
            <path class="cls-4" d="m466.1,124.59v-14.36l3.4,1.41v16.36l-3.4-3.4h0Z" />
            <path class="cls-3" d="m469.5,128v-16.36l3.4,1.41v18.35l-3.4-3.4h0Z" />
            <polygon class="cls-34" points="34.39 11.58 485.94 11.58 487.98 9.54 32.35 9.54 34.39 11.58 34.39 11.58" />
            <polygon class="cls-32"
                points="485.94 11.58 34.39 11.58 36.44 13.63 483.9 13.63 485.94 11.58 485.94 11.58" />
            <polygon class="cls-35" points="32.35 9.54 32.35 52.86 34.39 53.71 34.39 11.58 32.35 9.54 32.35 9.54" />
            <polygon class="cls-33" points="34.39 11.58 34.39 53.71 36.44 52.86 36.44 13.63 34.39 11.58 34.39 11.58" />
            <path class="cls-51" d="m485.86,53.71c-4,4-8,8-11.99,12h2.89l9.11-9.11v-2.89h0Z" />
            <polygon class="cls-31"
                points="34.39 119.82 485.86 119.82 487.9 121.86 32.35 121.86 34.39 119.82 34.39 119.82" />
            <polygon class="cls-36"
                points="485.86 119.82 34.39 119.82 36.44 117.78 483.82 117.78 485.86 119.82 485.86 119.82" />
            <path class="cls-37" d="m473.87,65.7c4-4,8-8,11.99-11.99v-2.89l-2.04,2.04-12.84,12.84h2.89Z" />
            <path class="cls-38" d="m485.86,53.71c-4,4-8,8-11.99,11.99h2.89l9.11-9.11v-2.89h0Z" />
            <path class="cls-42" d="m485.86,56.59l9.11,9.11h2.89c-4-4-8-8-11.99-11.99v2.89h0Z" />
            <path class="cls-39"
                d="m485.86,53.71c4,4,8,8,11.99,11.99h2.89s-12.84-12.84-12.84-12.84l-2.04-2.04v2.89h0Z" />
            <path class="cls-43" d="m494.97,65.7l-9.11,9.11v2.89c4-4,8-8,11.99-11.99h-2.89Z" />
            <path class="cls-44" d="m497.86,65.7c-4,4-8,8-11.99,11.99v2.89l14.88-14.88h-2.89Z" />
            <path class="cls-41" d="m485.86,74.81l-9.11-9.11h-2.89c4,4,8,8,11.99,11.99v-2.89h0Z" />
            <path class="cls-40" d="m485.86,77.7c-4-4-8-8-11.99-11.99h-2.89l14.88,14.88v-2.89h0Z" />
            <polygon class="cls-45"
                points="32.35 121.86 32.35 78.54 34.39 77.7 34.39 119.82 32.35 121.86 32.35 121.86" />
            <polygon class="cls-21"
                points="34.39 119.82 34.39 77.7 36.44 78.54 36.44 117.78 34.39 119.82 34.39 119.82" />
            <polygon class="cls-47"
                points="487.9 121.86 487.9 78.54 485.86 77.7 485.86 119.82 487.9 121.86 487.9 121.86" />
            <polygon class="cls-46"
                points="485.86 119.82 485.86 77.7 483.82 78.54 483.82 117.78 485.86 119.82 485.86 119.82" />
            <path class="cls-18" d="m47.35,18.35L0,65.7h4.81c15.31-15.31,30.63-30.63,45.94-45.94l-3.4-1.41h0Z" />
            <path class="cls-19"
                d="m50.75,19.76c-15.31,15.31-30.63,30.63-45.94,45.94h4.81S54.16,21.17,54.16,21.17l-3.4-1.41h0Z" />
            <path class="cls-53" d="m50.75,111.64v16.36l-3.4,3.4v-18.35l3.4-1.41h0Z" />
            <path class="cls-22" d="m50.75,128v-16.36l3.4-1.41v14.36l-3.4,3.4h0Z" />
            <path class="cls-26" d="m466.1,6.81v14.36l3.4-1.41V3.4l-3.4,3.4h0Z" />
            <path class="cls-20" d="m469.5,3.4v16.36l3.4-1.41V0l-3.4,3.4h0Z" />
            <path class="cls-23" d="m515.44,65.7c-15.31,15.31-30.63,30.63-45.94,45.94l-3.4-1.41,44.53-44.53h4.81Z" />
            <path class="cls-27"
                d="m469.5,111.64c15.31-15.31,30.63-30.63,45.94-45.94h4.81s-47.35,47.35-47.35,47.35l-3.4-1.41h0Z" />
            <path class="cls-30" d="m515.44,65.7c-15.31-15.31-30.63-30.63-45.94-45.94l-3.4,1.41,44.53,44.53h4.81Z" />
            <path class="cls-25"
                d="m469.5,19.76c15.31,15.31,30.63,30.63,45.94,45.94h4.81s-47.35-47.35-47.35-47.35l-3.4,1.41h0Z" />
            <polygon class="cls-28"
                points="487.98 9.54 487.98 52.86 485.94 53.71 485.94 11.58 487.98 9.54 487.98 9.54" />
            <polygon class="cls-24"
                points="485.94 11.58 485.94 53.71 483.9 52.86 483.9 13.63 485.94 11.58 485.94 11.58" />
            <polygon class="cls-57" points="25.29 65.7 34.39 74.81 43.5 65.7 34.39 56.59 25.29 65.7 25.29 65.7" />
            <path class="cls-29" d="m22.4,65.7c4-4,8-8,11.99-11.99v-2.89l-2.04,2.04-12.84,12.84h2.89Z" />
            <path class="cls-16" d="m34.39,53.71c-4,4-8,8-11.99,11.99h2.89l9.11-9.11v-2.89h0Z" />
            <path class="cls-17" d="m34.39,56.59l9.11,9.11h2.89c-4-4-8-8-11.99-11.99v2.89h0Z" />
            <path class="cls-14"
                d="m34.39,53.71c4,4,8,8,11.99,11.99h2.89s-12.84-12.84-12.84-12.84l-2.04-2.04v2.89h0Z" />
            <path class="cls-15" d="m43.5,65.7l-9.11,9.11v2.89c4-4,8-8,11.99-11.99h-2.89Z" />
            <path class="cls-13" d="m46.39,65.7c-4,4-8,8-11.99,11.99v2.89l14.88-14.88h-2.89Z" />
            <path class="cls-11" d="m34.39,74.81l-9.11-9.11h-2.89c4,4,8,8,11.99,11.99v-2.89h0Z" />
            <path class="cls-12" d="m34.39,77.7c-4-4-8-8-11.99-11.99h-2.89l14.88,14.88v-2.89h0Z" />
            <path class="cls-56" d="m55.74,16.41h316.27c-287.83,1.86-312.23,1.82-316.27,0h0Z" />
            <path class="cls-54" d="m463.32,114.99h-217.46c197.9-1.86,214.69-1.82,217.46,0h0Z" />
        </g>
    </g>
</svg>